<svg width="681" height="150" viewBox="0 0 681 150" fill="none" xmlns="http://www.w3.org/2000/svg">
<rect width="150" height="150" rx="15" fill="url(#paint0_linear_469_186)"/>
<path d="M46.1604 112.323C46.0627 112.421 45.9044 112.421 45.8068 112.323L37.1768 103.693C37.0791 103.596 37.0791 103.437 37.1768 103.34L89.7941 50.7223C89.9516 50.5648 89.8401 50.2955 89.6174 50.2955H43.2105C43.0724 50.2955 42.9605 50.1836 42.9605 50.0455V37.75C42.9605 37.6119 43.0724 37.5 43.2105 37.5H111.75C111.888 37.5 112 37.6119 112 37.75V106.29C112 106.428 111.888 106.54 111.75 106.54H99.4545C99.3164 106.54 99.2045 106.428 99.2045 106.29V59.8826C99.2045 59.6599 98.9352 59.5484 98.7777 59.7059L46.1604 112.323Z" fill="white"/>
<path d="M240.659 62.8864H230.023C229.614 60.6136 228.852 58.6136 227.739 56.8864C226.625 55.1591 225.261 53.6932 223.648 52.4886C222.034 51.2841 220.227 50.375 218.227 49.7614C216.25 49.1477 214.148 48.8409 211.92 48.8409C207.898 48.8409 204.295 49.8523 201.114 51.875C197.955 53.8977 195.455 56.8636 193.614 60.7727C191.795 64.6818 190.886 69.4545 190.886 75.0909C190.886 80.7727 191.795 85.5682 193.614 89.4773C195.455 93.3864 197.966 96.3409 201.148 98.3409C204.33 100.341 207.909 101.341 211.886 101.341C214.091 101.341 216.182 101.045 218.159 100.455C220.159 99.8409 221.966 98.9432 223.58 97.7614C225.193 96.5795 226.557 95.1364 227.67 93.4318C228.807 91.7045 229.591 89.7273 230.023 87.5L240.659 87.5341C240.091 90.9659 238.989 94.125 237.352 97.0114C235.739 99.875 233.659 102.352 231.114 104.443C228.591 106.511 225.705 108.114 222.455 109.25C219.205 110.386 215.659 110.955 211.818 110.955C205.773 110.955 200.386 109.523 195.659 106.659C190.932 103.773 187.205 99.6477 184.477 94.2841C181.773 88.9205 180.42 82.5227 180.42 75.0909C180.42 67.6364 181.784 61.2386 184.511 55.8977C187.239 50.5341 190.966 46.4205 195.693 43.5568C200.42 40.6705 205.795 39.2273 211.818 39.2273C215.523 39.2273 218.977 39.7614 222.182 40.8295C225.409 41.875 228.307 43.4205 230.875 45.4659C233.443 47.4886 235.568 49.9659 237.25 52.8977C238.932 55.8068 240.068 59.1364 240.659 62.8864ZM251.486 110V57.6364H261.338V65.9545H261.884C262.838 63.1364 264.52 60.9205 266.929 59.3068C269.361 57.6705 272.111 56.8523 275.179 56.8523C275.816 56.8523 276.566 56.875 277.429 56.9205C278.316 56.9659 279.009 57.0227 279.509 57.0909V66.8409C279.1 66.7273 278.372 66.6023 277.327 66.4659C276.281 66.3068 275.236 66.2273 274.191 66.2273C271.781 66.2273 269.634 66.7386 267.747 67.7614C265.884 68.7614 264.406 70.1591 263.316 71.9545C262.225 73.7273 261.679 75.75 261.679 78.0227V110H251.486ZM308.063 111.057C302.904 111.057 298.461 109.955 294.733 107.75C291.029 105.523 288.165 102.398 286.143 98.375C284.143 94.3295 283.143 89.5909 283.143 84.1591C283.143 78.7955 284.143 74.0682 286.143 69.9773C288.165 65.8864 290.983 62.6932 294.597 60.3977C298.233 58.1023 302.483 56.9545 307.347 56.9545C310.302 56.9545 313.165 57.4432 315.938 58.4205C318.711 59.3977 321.199 60.9318 323.404 63.0227C325.608 65.1136 327.347 67.8295 328.62 71.1705C329.893 74.4886 330.529 78.5227 330.529 83.2727V86.8864H288.904V79.25H320.54C320.54 76.5682 319.995 74.1932 318.904 72.125C317.813 70.0341 316.279 68.3864 314.302 67.1818C312.347 65.9773 310.052 65.375 307.415 65.375C304.552 65.375 302.052 66.0795 299.915 67.4886C297.802 68.875 296.165 70.6932 295.006 72.9432C293.87 75.1705 293.302 77.5909 293.302 80.2045V86.1705C293.302 89.6705 293.915 92.6477 295.143 95.1023C296.393 97.5568 298.131 99.4318 300.358 100.727C302.586 102 305.188 102.636 308.165 102.636C310.097 102.636 311.858 102.364 313.449 101.818C315.04 101.25 316.415 100.409 317.574 99.2955C318.733 98.1818 319.62 96.8068 320.233 95.1705L329.881 96.9091C329.108 99.75 327.722 102.239 325.722 104.375C323.745 106.489 321.256 108.136 318.256 109.318C315.279 110.477 311.881 111.057 308.063 111.057ZM360.481 111.023C356.254 111.023 352.481 109.943 349.163 107.784C345.867 105.602 343.276 102.5 341.39 98.4773C339.526 94.4318 338.594 89.5795 338.594 83.9205C338.594 78.2614 339.538 73.4205 341.424 69.3977C343.333 65.375 345.947 62.2955 349.265 60.1591C352.583 58.0227 356.344 56.9545 360.549 56.9545C363.799 56.9545 366.413 57.5 368.39 58.5909C370.39 59.6591 371.935 60.9091 373.026 62.3409C374.14 63.7727 375.004 65.0341 375.617 66.125H376.231V40.1818H386.424V110H376.469V101.852H375.617C375.004 102.966 374.117 104.239 372.958 105.67C371.822 107.102 370.254 108.352 368.254 109.42C366.254 110.489 363.663 111.023 360.481 111.023ZM362.731 102.33C365.663 102.33 368.14 101.557 370.163 100.011C372.208 98.4432 373.754 96.2727 374.799 93.5C375.867 90.7273 376.401 87.5 376.401 83.8182C376.401 80.1818 375.879 77 374.833 74.2727C373.788 71.5455 372.254 69.4205 370.231 67.8977C368.208 66.375 365.708 65.6136 362.731 65.6136C359.663 65.6136 357.106 66.4091 355.06 68C353.015 69.5909 351.469 71.7614 350.424 74.5114C349.401 77.2614 348.89 80.3636 348.89 83.8182C348.89 87.3182 349.413 90.4659 350.458 93.2614C351.504 96.0568 353.049 98.2727 355.094 99.9091C357.163 101.523 359.708 102.33 362.731 102.33ZM400.012 110V57.6364H410.205V110H400.012ZM405.16 49.5568C403.387 49.5568 401.865 48.9659 400.592 47.7841C399.342 46.5795 398.717 45.1477 398.717 43.4886C398.717 41.8068 399.342 40.375 400.592 39.1932C401.865 37.9886 403.387 37.3864 405.16 37.3864C406.933 37.3864 408.444 37.9886 409.694 39.1932C410.967 40.375 411.603 41.8068 411.603 43.4886C411.603 45.1477 410.967 46.5795 409.694 47.7841C408.444 48.9659 406.933 49.5568 405.16 49.5568ZM447.402 57.6364V65.8182H418.799V57.6364H447.402ZM426.47 45.0909H436.663V94.625C436.663 96.6023 436.959 98.0909 437.549 99.0909C438.14 100.068 438.902 100.739 439.834 101.102C440.788 101.443 441.822 101.614 442.936 101.614C443.754 101.614 444.47 101.557 445.084 101.443C445.697 101.33 446.174 101.239 446.515 101.17L448.356 109.591C447.765 109.818 446.924 110.045 445.834 110.273C444.743 110.523 443.379 110.659 441.743 110.682C439.061 110.727 436.561 110.25 434.243 109.25C431.924 108.25 430.049 106.705 428.618 104.614C427.186 102.523 426.47 99.8977 426.47 96.7386V45.0909ZM539.334 40.1818V110H529.652L494.164 58.7955H493.516V110H482.982V40.1818H492.732L528.254 91.4545H528.902V40.1818H539.334ZM574.979 111.057C570.07 111.057 565.786 109.932 562.127 107.682C558.468 105.432 555.627 102.284 553.604 98.2386C551.581 94.1932 550.57 89.4659 550.57 84.0568C550.57 78.625 551.581 73.875 553.604 69.8068C555.627 65.7386 558.468 62.5795 562.127 60.3295C565.786 58.0795 570.07 56.9545 574.979 56.9545C579.888 56.9545 584.172 58.0795 587.831 60.3295C591.49 62.5795 594.331 65.7386 596.354 69.8068C598.377 73.875 599.388 78.625 599.388 84.0568C599.388 89.4659 598.377 94.1932 596.354 98.2386C594.331 102.284 591.49 105.432 587.831 107.682C584.172 109.932 579.888 111.057 574.979 111.057ZM575.013 102.5C578.195 102.5 580.831 101.659 582.922 99.9773C585.013 98.2955 586.559 96.0568 587.559 93.2614C588.581 90.4659 589.093 87.3864 589.093 84.0227C589.093 80.6818 588.581 77.6136 587.559 74.8182C586.559 72 585.013 69.7386 582.922 68.0341C580.831 66.3295 578.195 65.4773 575.013 65.4773C571.809 65.4773 569.15 66.3295 567.036 68.0341C564.945 69.7386 563.388 72 562.365 74.8182C561.365 77.6136 560.865 80.6818 560.865 84.0227C560.865 87.3864 561.365 90.4659 562.365 93.2614C563.388 96.0568 564.945 98.2955 567.036 99.9773C569.15 101.659 571.809 102.5 575.013 102.5ZM619.565 110L604.155 57.6364H614.69L624.951 96.0909H625.462L635.758 57.6364H646.292L656.519 95.9205H657.03L667.224 57.6364H677.758L662.383 110H651.985L641.349 72.1932H640.565L629.928 110H619.565Z" fill="black"/>
<defs>
<linearGradient id="paint0_linear_469_186" x1="150" y1="0" x2="1.78814e-05" y2="150" gradientUnits="userSpaceOnUse">
<stop stop-color="#0C0C0C"/>
<stop offset="0.25" stop-color="#0C0C0C"/>
<stop offset="0.45" stop-color="#3A3A3A"/>
<stop offset="0.55" stop-color="#3A3A3A"/>
<stop offset="0.75" stop-color="#0C0C0C"/>
<stop offset="1"/>
</linearGradient>
</defs>
</svg>
